<svg version="1.1" id="Layer_1" xmlns="http://www.w3.org/2000/svg" xmlns:xlink="http://www.w3.org/1999/xlink" x="0px" y="0px"
	 width="100%" viewBox="0 0 512 512" enable-background="new 0 0 512 512" xml:space="preserve">
<path fill="#7AA9BF" opacity="1.000000" stroke="none" 
	d="
M362.711548,1.241360 
	C373.354218,1.000000 383.708466,1.000000 394.531342,1.000000 
	C401.996124,2.964146 409.110840,4.406598 415.242737,8.844331 
	C429.566986,19.211046 439.797028,32.388561 443.162415,49.967678 
	C451.961700,95.930565 459.979736,142.038437 468.345978,188.081833 
	C474.776947,223.474411 481.229889,258.863007 487.634796,294.260315 
	C495.195984,336.048157 502.957489,377.799774 510.324829,419.622589 
	C511.472778,426.139252 511.250549,432.814972 512.748169,439.662811 
	C513.000000,449.687561 513.000000,459.375122 513.000000,469.531342 
	C510.905396,475.687622 510.555969,481.851898 506.676605,487.082153 
	C495.186127,502.573792 480.995422,511.858856 460.818604,511.725708 
	C446.424866,511.630676 433.634064,509.075439 422.417511,499.421356 
	C410.098969,488.818848 404.328217,475.335663 401.652527,459.681183 
	C394.891754,420.126251 387.421722,380.694672 380.262177,341.208862 
	C376.934967,322.859100 373.593994,304.511871 370.252808,286.164642 
	C370.042297,285.008606 369.905853,283.861267 369.956879,283.045868 
	C364.213409,305.286652 358.000641,327.764191 351.904877,350.271454 
	C342.369598,385.478485 332.782776,420.671692 323.326324,455.900024 
	C319.993134,468.317291 316.754761,480.724060 308.308044,490.959473 
	C302.082397,498.503479 294.898224,504.763245 286.111145,509.232849 
	C282.113983,511.266052 277.674713,511.008728 273.313995,512.753052 
	C262.645782,513.000000 252.291550,513.000000 241.468658,513.000000 
	C237.503311,510.779572 233.197937,511.709930 229.534988,509.970642 
	C214.461746,502.813416 203.331589,491.685638 196.824478,476.390717 
	C191.272034,463.339722 188.549667,449.341156 184.720963,435.728760 
	C172.683136,392.930023 160.648911,350.129913 148.697266,307.306885 
	C146.415359,299.130768 143.979736,290.993195 142.188141,283.615753 
	C141.104767,291.803802 139.363754,300.768341 137.830917,309.760071 
	C129.327042,359.644043 120.592697,409.489136 112.341385,459.415466 
	C110.203613,472.350555 106.318237,484.390656 97.132362,494.063568 
	C87.317863,504.398499 75.887222,511.743134 60.938885,511.481171 
	C52.823605,511.338928 44.655445,512.269226 36.666962,509.673645 
	C22.267050,504.994873 12.168116,495.367401 4.655140,482.611389 
	C2.476436,478.912262 2.708658,474.580811 1.246411,470.314880 
	C1.000000,459.979095 1.000000,449.958221 1.000000,439.468658 
	C2.903138,435.016968 2.212761,430.666290 2.719637,426.491974 
	C5.671952,402.178467 10.580329,378.188019 14.618351,354.055542 
	C22.147892,309.056671 29.959652,264.105194 37.675873,219.137878 
	C46.490417,167.769989 55.147812,116.374901 64.169899,65.042732 
	C65.752495,56.038364 66.679802,46.895218 70.399437,38.361118 
	C76.762314,23.762537 87.009171,12.876920 100.944458,5.240448 
	C105.191750,2.912954 109.927986,2.960717 114.661705,1.254540 
	C125.354225,1.000000 135.708450,1.000000 146.531342,1.000000 
	C147.621933,1.599685 148.372620,1.879344 149.222366,2.021879 
	C167.742752,5.128401 179.390091,17.124266 188.383347,32.461262 
	C190.317154,35.759159 191.824661,39.288296 193.081802,42.931080 
	C194.524353,47.111092 195.227417,47.303062 198.265137,43.881020 
	C204.248062,37.141163 210.604584,30.790537 217.819778,25.413858 
	C232.291916,14.629400 248.251312,6.954377 266.069489,3.513905 
	C272.613403,2.250358 279.309540,2.464082 285.934753,2.082045 
	C290.533752,1.816845 294.937561,2.690684 297.350006,7.516804 
	C299.812164,12.442348 299.742035,17.184540 296.392853,21.619251 
	C288.495575,32.076206 282.159790,43.317123 278.419708,55.955868 
	C270.447479,82.896133 274.391937,108.311928 288.063507,132.508072 
	C288.697815,133.630676 289.267059,135.215363 290.830627,135.012283 
	C292.447266,134.802307 292.414551,133.075119 292.749603,131.839172 
	C299.067505,108.532867 305.431549,85.239037 311.769531,61.938248 
	C314.429199,52.160202 316.337250,42.143650 321.221649,33.049129 
	C328.073090,20.292160 337.991730,10.852081 350.867920,4.347202 
	C354.545135,2.489537 358.710754,2.981292 362.711548,1.241360 
z"/>
<path fill="#000000" opacity="1.000000" stroke="none" 
	d="
M513.000000,439.531342 
	C510.796387,440.979553 511.204559,439.119385 511.028625,438.096954 
	C507.573303,418.015961 503.985382,397.962372 500.133606,377.950165 
	C496.099152,356.988739 492.776184,335.891449 488.963135,314.886078 
	C485.474518,295.668182 481.661346,276.509277 478.149689,257.295441 
	C474.987244,239.992096 472.116058,222.635605 468.974792,205.328262 
	C466.127350,189.639435 462.980743,174.004700 460.163147,158.310730 
	C456.991058,140.641968 454.091278,122.924477 450.975189,105.245430 
	C448.629211,91.935410 446.289185,78.620560 443.641144,65.368881 
	C441.864288,56.476826 440.853058,47.433487 437.120880,38.934357 
	C430.113983,22.977934 418.625610,11.840772 402.734161,4.995307 
	C399.949707,3.795868 396.736328,3.658959 394.659515,1.286785 
	C432.803619,1.000000 470.607391,1.053177 508.410522,0.913468 
	C511.986389,0.900252 513.111267,1.448059 513.107788,5.403846 
	C512.979614,149.956711 513.000000,294.509705 513.000000,439.531342 
z"/>
<path fill="#000000" opacity="1.000000" stroke="none" 
	d="
M114.531342,1.000000 
	C115.988960,3.117925 114.208160,2.729299 113.170532,3.032856 
	C99.292740,7.092764 88.300850,15.173389 79.708733,26.745871 
	C73.026337,35.746204 69.734398,45.971485 67.975327,56.876709 
	C65.924858,69.588440 63.687729,82.270103 61.520847,94.962982 
	C59.354259,107.654114 57.188255,120.345375 54.996685,133.032196 
	C52.527626,147.325424 50.010658,161.610413 47.551636,175.905350 
	C45.671524,186.834930 43.861858,197.776627 41.998001,208.709030 
	C39.531334,223.177170 37.046623,237.642258 34.561726,252.107285 
	C32.380432,264.804932 30.201012,277.502960 27.997171,290.196716 
	C25.795727,302.876678 23.524582,315.544617 21.358463,328.230560 
	C19.190699,340.926147 17.138474,353.641479 14.992407,366.340820 
	C12.875347,378.868500 10.707408,391.387634 8.555759,403.909454 
	C6.707972,414.662933 4.818950,425.409515 3.041156,436.174500 
	C2.822469,437.498718 2.979481,438.841827 1.328012,439.338013 
	C1.000000,294.448059 1.011847,149.896133 0.926056,5.344249 
	C0.924078,2.011544 1.269019,0.855270 5.149752,0.877379 
	C41.453117,1.084210 77.758141,1.000000 114.531342,1.000000 
z"/>
<path fill="#000000" opacity="1.000000" stroke="none" 
	d="
M273.468658,513.000000 
	C272.300323,509.683899 275.647705,510.579285 276.646942,510.293030 
	C286.221649,507.550354 294.096039,502.230225 301.125488,495.390015 
	C310.551544,486.217621 315.785919,474.885254 319.055695,462.306763 
	C324.483398,441.427063 330.339478,420.658997 335.959351,399.828888 
	C342.339050,376.182404 348.625732,352.510773 355.013184,328.866394 
	C359.620453,311.811707 364.320038,294.781891 369.003082,277.747742 
	C369.294647,276.687225 369.801331,275.685822 370.424255,274.109467 
	C375.012024,298.499512 379.719208,322.182159 383.866119,345.962524 
	C387.724854,368.090210 391.667664,390.196442 395.899536,412.256836 
	C399.549438,431.283447 401.695526,450.652710 406.319275,469.423950 
	C411.475220,490.355774 425.545044,504.242889 446.801147,508.816650 
	C472.392273,514.323181 493.610199,504.101166 506.886047,482.060120 
	C509.254333,478.128174 510.602783,473.581909 512.711060,469.659668 
	C513.000000,482.979889 512.866760,495.962067 513.092834,508.938019 
	C513.150085,512.222717 512.629150,513.120483 509.072327,513.106384 
	C467.304413,512.940613 425.535614,513.000000 383.767029,513.000000 
	C347.157135,513.000000 310.547211,513.000000 273.468658,513.000000 
z"/>
<path fill="#000000" opacity="1.000000" stroke="none" 
	d="
M1.000000,470.468658 
	C2.516026,469.187927 2.666481,470.238312 2.997404,471.339081 
	C9.056601,491.493591 22.584658,504.249390 42.829639,508.807404 
	C60.474331,512.779907 76.775818,509.143341 90.886520,496.768738 
	C102.776962,486.341217 107.787148,473.008698 110.069481,457.945557 
	C112.315323,443.123322 115.182526,428.396057 117.696686,413.613434 
	C119.857323,400.909485 121.881607,388.182465 124.008469,375.472717 
	C126.080429,363.091003 128.197571,350.716858 130.310379,338.342010 
	C132.531845,325.330627 134.745422,312.317780 137.013062,299.314423 
	C138.439880,291.132568 139.959808,282.966980 141.502197,274.438873 
	C144.336090,279.719879 145.227264,285.518005 146.812241,290.968170 
	C153.789246,314.959442 160.303314,339.085480 166.969589,363.166992 
	C174.334442,389.771973 181.371948,416.473328 189.190826,442.944031 
	C192.308243,453.498016 194.427414,464.353973 198.789474,474.579010 
	C206.222336,492.002228 218.680328,503.796051 236.520996,510.035889 
	C238.295914,510.656677 240.460617,510.585327 241.341248,512.721008 
	C162.621506,513.000000 84.242973,512.968750 5.864692,513.095276 
	C2.069115,513.101379 0.724400,512.710754 0.861216,508.374847 
	C1.254646,495.906616 1.000000,483.417969 1.000000,470.468658 
z"/>
<path fill="#000000" opacity="1.000000" stroke="none" 
	d="
M362.531342,1.000000 
	C363.960846,3.114945 362.182068,2.698977 361.151062,3.039675 
	C336.770447,11.096081 322.923767,28.021656 316.759460,52.835613 
	C309.647247,81.465515 301.085114,109.735710 293.708740,138.314896 
	C293.434509,139.377396 293.911713,141.730789 291.885162,141.824051 
	C290.366119,141.893951 290.174438,140.058197 289.458954,139.004959 
	C280.526031,125.855087 274.961456,111.510963 272.913696,95.646873 
	C269.396973,68.402649 276.638092,44.275475 292.938721,22.549414 
	C296.074951,18.369324 298.364136,14.219550 295.420227,8.777743 
	C293.261047,4.786437 289.799805,2.990635 285.848328,3.179399 
	C282.127777,3.357131 278.334412,3.731459 274.610809,4.240022 
	C262.133423,5.944160 250.231583,9.798702 238.913422,15.177390 
	C230.389618,19.228115 222.205643,24.165693 215.192413,30.486887 
	C207.569946,37.357201 199.890121,44.300125 193.862976,53.718441 
	C191.505554,47.082962 190.054214,40.854649 187.095291,35.133102 
	C179.181915,19.831429 167.294250,9.364838 150.946365,3.854020 
	C149.382828,3.326955 147.213867,3.522848 146.645721,1.265673 
	C218.687561,1.000000 290.375122,1.000000 362.531342,1.000000 
z"/>
<path fill="#9BBECF" opacity="1.000000" stroke="none" 
	d="
M44.901550,313.859619 
	C52.096733,271.755280 59.244274,230.084137 66.377350,188.410507 
	C73.594261,146.247040 80.965515,104.108986 87.936386,61.904842 
	C91.561760,39.955494 102.572372,26.679138 122.270920,21.944059 
	C142.848251,16.997742 165.378540,30.371941 171.534210,51.274982 
	C174.027985,59.743244 176.272202,68.284798 178.733032,76.763077 
	C179.607559,79.776115 179.330521,82.544769 178.374634,85.528458 
	C165.099777,126.964806 172.754135,164.709076 198.829437,199.037125 
	C203.661560,205.398590 209.672928,210.734329 215.619293,216.061035 
	C217.824997,218.036865 219.061478,220.431717 219.844345,223.246216 
	C228.504257,254.379944 237.216003,285.499237 245.918015,316.621246 
	C247.722015,323.073120 251.398102,326.730194 256.080994,326.762146 
	C260.864746,326.794800 264.874359,322.925140 266.663849,316.363525 
	C272.843567,293.703827 279.028870,271.045441 285.091003,248.354218 
	C286.031036,244.835632 287.494781,242.870987 291.527466,242.994949 
	C316.359619,243.758286 338.753265,236.196564 359.383209,222.772293 
	C360.169861,222.260406 360.904510,221.398849 362.546021,222.117630 
	C360.158966,231.151642 357.796387,240.277023 355.335236,249.375748 
	C344.896515,287.967499 334.425293,326.550507 323.972168,365.138367 
	C315.174133,397.616394 306.506683,430.130524 297.543304,462.562836 
	C292.580292,480.520660 275.630493,492.948639 256.841339,492.996735 
	C238.295013,493.044250 221.260574,480.521393 216.171417,462.512543 
	C200.679031,407.690369 185.375000,352.814972 169.993164,297.961548 
	C163.111816,273.421906 156.228409,248.882812 149.326782,224.348846 
	C147.593567,218.187592 143.736008,214.863174 138.685913,215.063675 
	C133.876328,215.254639 130.111801,219.173706 129.013382,225.498642 
	C124.627502,250.753174 120.311058,276.019745 115.973770,301.282684 
	C108.875832,342.625305 101.771942,383.966919 94.692192,425.312653 
	C92.725784,436.796478 90.769821,448.282806 88.924080,459.786407 
	C84.864784,485.086090 58.759430,497.527374 36.963482,484.503296 
	C26.193478,478.067688 19.150938,464.026154 21.248827,451.604279 
	C28.982697,405.811066 36.961113,360.059143 44.901550,313.859619 
z"/>
<path fill="#9BBECF" opacity="1.000000" stroke="none" 
	d="
M416.988708,44.160637 
	C422.473541,56.563961 423.411835,69.656364 425.746979,82.384598 
	C441.216492,166.706223 456.485870,251.064575 471.794098,335.415741 
	C478.719879,373.578156 485.534668,411.760803 492.500946,449.915771 
	C495.644135,467.131287 483.697296,486.552094 463.273834,489.577301 
	C446.815674,492.015106 429.111938,480.144196 425.949249,462.928314 
	C415.482544,405.953156 405.229523,348.938782 394.866333,291.944580 
	C390.875610,269.997009 386.782715,248.068054 382.793243,226.120285 
	C381.606689,219.592529 378.940582,214.662567 369.519226,214.881180 
	C375.383575,210.164719 379.244995,205.749298 383.213959,201.443985 
	C386.782410,197.573090 388.200775,193.437210 386.126953,188.702560 
	C384.153107,184.196106 379.928192,182.854034 375.319061,183.032196 
	C352.895416,183.898926 332.602814,177.685883 314.076965,165.134537 
	C310.086945,162.431274 308.922302,159.904572 310.332031,154.870941 
	C319.674957,121.510429 328.592377,88.030533 337.607788,54.578571 
	C342.676880,35.769459 354.639648,24.009676 373.959229,21.478298 
	C391.763367,19.145479 405.736603,26.557199 415.476624,41.718525 
	C415.927002,42.419636 416.370544,43.125149 416.988708,44.160637 
z"/>
<path fill="#FEF3D6" opacity="1.000000" stroke="none" 
	d="
M338.720856,211.797455 
	C276.948517,243.263489 204.990875,207.190369 193.319046,139.237274 
	C185.273102,92.394051 214.366867,43.789921 259.282257,29.117496 
	C260.623169,28.679464 262.253693,27.356613 263.474579,28.571312 
	C264.798920,29.888899 263.192261,31.328421 262.633667,32.590256 
	C230.346695,105.520477 271.675049,185.536438 349.708160,201.118607 
	C350.688843,201.314438 351.696533,201.424759 352.621399,202.652023 
	C348.590027,206.365295 343.796631,208.962326 338.720856,211.797455 
z"/>
<path fill="#000000" opacity="1.000000" stroke="none" 
	d="
M254.704681,271.365295 
	C251.444138,260.251556 248.404587,249.487091 245.320374,238.735458 
	C244.991409,237.588669 244.570877,236.316452 245.361984,235.446060 
	C246.408951,234.294144 247.455292,235.742966 248.459549,236.024857 
	C253.300659,237.383728 258.111847,238.859100 262.890259,240.425430 
	C264.296875,240.886520 265.989655,240.861191 265.131500,243.718323 
	C262.026703,254.055573 259.424896,264.543915 256.628235,274.993896 
	C254.197769,274.512421 255.361710,272.770142 254.704681,271.365295 
z"/>
</svg>